<svg xmlns="http://www.w3.org/2000/svg" viewBox="0 0 60 60"><title>8-Box</title><g id="_8-Box" data-name="8-Box"><g id="_Group_" data-name="&lt;Group&gt;"><path d="M56,15V49a6,6,0,0,1-6,6H10a6,6,0,0,1-6-6V15Z" style="fill:#b46e5a"/><path d="M23.18,9.82A1.785,1.785,0,0,0,25,11H35a1.959,1.959,0,0,0,2-2V5H57a2.006,2.006,0,0,1,2,2v6a2.006,2.006,0,0,1-2,2H3a2.006,2.006,0,0,1-2-2V7A2.006,2.006,0,0,1,3,5H23V9A2.36,2.36,0,0,0,23.18,9.82Z" style="fill:#a65d4e"/><path d="M32,11l5-5V9a1.959,1.959,0,0,1-2,2Z" style="fill:#dce1eb"/><path d="M37,5V6l-5,5H27l6-6Z" style="fill:#f2f6fc"/><path d="M23.18,9.82,28,5h5l-6,6H25A1.785,1.785,0,0,1,23.18,9.82Z" style="fill:#dce1eb"/><path d="M28,5,23.18,9.82A2.36,2.36,0,0,1,23,9V5Z" style="fill:#f2f6fc"/><rect x="4" y="15" width="52" height="3" style="fill:#915041"/><path d="M4,13V7A2.006,2.006,0,0,1,6,5H3A2.006,2.006,0,0,0,1,7v6a2.006,2.006,0,0,0,2,2H6A2.006,2.006,0,0,1,4,13Z" style="fill:#915041"/><path d="M38,25H22a1,1,0,0,1-1-1v3a1,1,0,0,0,1,1H38a1,1,0,0,0,1-1V24A1,1,0,0,1,38,25Z" style="fill:#915041"/></g><g id="_Group_2" data-name="&lt;Group&gt;"><rect x="21" y="20" width="18" height="5" rx="1" ry="1" style="fill:#e3a76f"/></g><g id="_Group_3" data-name="&lt;Group&gt;"><rect x="26" y="39" width="8" height="4" rx="1" ry="1" style="fill:#f2f2f2"/><path d="M40,35V47a3,3,0,0,1-3,3H23a3,3,0,0,1-3-3V35H40Zm-6,7V40a1,1,0,0,0-1-1H27a1,1,0,0,0-1,1v2a1,1,0,0,0,1,1h6A1,1,0,0,0,34,42Z" style="fill:#e3a76f"/><path d="M42,31v3a1,1,0,0,1-1,1H35l5-5h1A1,1,0,0,1,42,31Z" style="fill:#f2f2f2"/><polygon points="40 30 35 35 30 35 35 30 40 30" style="fill:#c18f5f"/><polygon points="35 30 30 35 25 35 30 30 35 30" style="fill:#f2f2f2"/><polygon points="30 30 25 35 20 35 25 30 30 30" style="fill:#c18f5f"/><path d="M25,30l-5,5H19a1,1,0,0,1-1-1V31a1,1,0,0,1,1-1Z" style="fill:#f2f2f2"/><rect x="20" y="35" width="20" height="3" style="fill:#c39160"/><path d="M19,36V47a4,4,0,0,0,4,4H37a4,4,0,0,0,4-4V36a2,2,0,0,0,2-2V31a2,2,0,0,0-2-2H19a2,2,0,0,0-2,2v3A2,2,0,0,0,19,36Zm8.586-5-3,3H22.414l3-3Zm5,0-3,3H27.414l3-3Zm5,0-3,3H32.414l3-3ZM39,47a2,2,0,0,1-2,2H23a2,2,0,0,1-2-2V36H39Zm2-13H37.414l3-3H41ZM19,31h3.586l-3,3H19Z" style="fill:#2b1505"/><path d="M33,38H27a2,2,0,0,0-2,2v2a2,2,0,0,0,2,2h6a2,2,0,0,0,2-2V40A2,2,0,0,0,33,38Zm0,4-6,0V40h6Z" style="fill:#2b1505"/><path d="M57,4H3A3,3,0,0,0,0,7v6a3,3,0,0,0,3,3V49a7.008,7.008,0,0,0,7,7H50a7.008,7.008,0,0,0,7-7V16a3,3,0,0,0,3-3V7A3,3,0,0,0,57,4ZM29.414,10l4-4h2.172l-4,4ZM25,10a1.11,1.11,0,0,1-.546-.125.97.97,0,0,0,.253-.168L28.414,6h2.172l-4,4ZM24,7.586V6h1.586Zm12,.828V9a.915.915,0,0,1-1,1h-.586ZM55,49a5.006,5.006,0,0,1-5,5H10a5.006,5.006,0,0,1-5-5V16H55Zm3-36a1,1,0,0,1-1,1H3a1,1,0,0,1-1-1V7A1,1,0,0,1,3,6H22V9a2.916,2.916,0,0,0,3,3H35a2.916,2.916,0,0,0,3-3V6H57a1,1,0,0,1,1,1Z" style="fill:#2b1505"/><path d="M22,26H38a2,2,0,0,0,2-2V21a2,2,0,0,0-2-2H22a2,2,0,0,0-2,2v3A2,2,0,0,0,22,26Zm0-5H38v3L22,24Z" style="fill:#2b1505"/></g></g></svg>